<svg width="239" height="30" viewBox="0 0 239 30" fill="none" xmlns="http://www.w3.org/2000/svg">
<path d="M5.008 27.2295L13.104 16.7975L13.84 17.5655C13.52 17.8002 13.2107 17.9922 12.912 18.1415C12.6133 18.2908 12.2933 18.3975 11.952 18.4615C11.6107 18.5255 11.248 18.5575 10.864 18.5575C9.41333 18.5575 8.12267 18.2268 6.992 17.5655C5.86133 16.9042 4.96533 16.0082 4.304 14.8775C3.664 13.7255 3.344 12.4242 3.344 10.9735C3.344 9.43749 3.696 8.07216 4.4 6.87749C5.12533 5.68282 6.10667 4.74416 7.344 4.06149C8.60267 3.35749 10.032 3.00549 11.632 3.00549C13.2533 3.00549 14.6827 3.34682 15.92 4.02949C17.1573 4.71216 18.128 5.65082 18.832 6.84549C19.5573 8.01882 19.92 9.37349 19.92 10.9095C19.92 11.6775 19.8347 12.4455 19.664 13.2135C19.4933 13.9815 19.184 14.8028 18.736 15.6775C18.3093 16.5308 17.6907 17.5015 16.88 18.5895L10.224 27.2295H5.008ZM11.632 14.9095C12.3787 14.9095 13.04 14.7495 13.616 14.4295C14.2133 14.0882 14.6827 13.6188 15.024 13.0215C15.3653 12.4028 15.536 11.7095 15.536 10.9415C15.536 10.1308 15.3547 9.42682 14.992 8.82949C14.6507 8.23216 14.192 7.76282 13.616 7.42149C13.04 7.08016 12.3787 6.90949 11.632 6.90949C10.9067 6.90949 10.2453 7.08016 9.648 7.42149C9.05067 7.76282 8.57067 8.23216 8.208 8.82949C7.86667 9.42682 7.696 10.1308 7.696 10.9415C7.696 11.7095 7.86667 12.4028 8.208 13.0215C8.57067 13.6188 9.05067 14.0882 9.648 14.4295C10.2453 14.7495 10.9067 14.9095 11.632 14.9095ZM24.258 27.2295L32.354 16.7975L33.09 17.5655C32.77 17.8002 32.4607 17.9922 32.162 18.1415C31.8633 18.2908 31.5433 18.3975 31.202 18.4615C30.8607 18.5255 30.498 18.5575 30.114 18.5575C28.6633 18.5575 27.3727 18.2268 26.242 17.5655C25.1113 16.9042 24.2153 16.0082 23.554 14.8775C22.914 13.7255 22.594 12.4242 22.594 10.9735C22.594 9.43749 22.946 8.07216 23.65 6.87749C24.3753 5.68282 25.3567 4.74416 26.594 4.06149C27.8527 3.35749 29.282 3.00549 30.882 3.00549C32.5033 3.00549 33.9327 3.34682 35.17 4.02949C36.4073 4.71216 37.378 5.65082 38.082 6.84549C38.8073 8.01882 39.17 9.37349 39.17 10.9095C39.17 11.6775 39.0847 12.4455 38.914 13.2135C38.7433 13.9815 38.434 14.8028 37.986 15.6775C37.5593 16.5308 36.9407 17.5015 36.13 18.5895L29.474 27.2295H24.258ZM30.882 14.9095C31.6287 14.9095 32.29 14.7495 32.866 14.4295C33.4633 14.0882 33.9327 13.6188 34.274 13.0215C34.6153 12.4028 34.786 11.7095 34.786 10.9415C34.786 10.1308 34.6047 9.42682 34.242 8.82949C33.9007 8.23216 33.442 7.76282 32.866 7.42149C32.29 7.08016 31.6287 6.90949 30.882 6.90949C30.1567 6.90949 29.4953 7.08016 28.898 7.42149C28.3007 7.76282 27.8207 8.23216 27.458 8.82949C27.1167 9.42682 26.946 10.1308 26.946 10.9415C26.946 11.7095 27.1167 12.4028 27.458 13.0215C27.8207 13.6188 28.3007 14.0882 28.898 14.4295C29.4953 14.7495 30.1567 14.9095 30.882 14.9095ZM59.7875 27.6135C58.0808 27.6135 56.5022 27.3042 55.0515 26.6855C53.6008 26.0668 52.3315 25.2028 51.2435 24.0935C50.1555 22.9842 49.3022 21.6828 48.6835 20.1895C48.0862 18.6962 47.7875 17.0642 47.7875 15.2935C47.7875 13.5228 48.0755 11.8908 48.6515 10.3975C49.2488 8.88283 50.0808 7.58149 51.1475 6.49349C52.2355 5.38416 53.5048 4.53082 54.9555 3.93349C56.4062 3.31482 57.9848 3.00549 59.6915 3.00549C61.3982 3.00549 62.9235 3.29349 64.2675 3.86949C65.6328 4.44549 66.7848 5.21349 67.7235 6.17349C68.6622 7.11216 69.3342 8.14682 69.7395 9.27749L65.8675 11.1335C65.4195 9.89616 64.6622 8.89349 63.5955 8.12549C62.5288 7.35749 61.2275 6.97349 59.6915 6.97349C58.1982 6.97349 56.8755 7.32549 55.7235 8.02949C54.5928 8.73349 53.7075 9.70416 53.0675 10.9415C52.4488 12.1788 52.1395 13.6295 52.1395 15.2935C52.1395 16.9575 52.4595 18.4188 53.0995 19.6775C53.7608 20.9148 54.6675 21.8855 55.8195 22.5895C56.9715 23.2935 58.2942 23.6455 59.7875 23.6455C61.0035 23.6455 62.1235 23.4108 63.1475 22.9415C64.1715 22.4508 64.9928 21.7682 65.6115 20.8935C66.2302 19.9975 66.5395 18.9415 66.5395 17.7255V15.9015L68.5235 17.6295H59.6915V13.9495H70.8915V16.3495C70.8915 18.1842 70.5822 19.8055 69.9635 21.2135C69.3448 22.6215 68.5022 23.8055 67.4355 24.7655C66.3902 25.7042 65.2062 26.4188 63.8835 26.9095C62.5608 27.3788 61.1955 27.6135 59.7875 27.6135ZM82.2393 27.6135C80.4473 27.6135 78.8793 27.2082 77.5353 26.3975C76.1913 25.5868 75.1459 24.4882 74.3993 23.1015C73.6526 21.7148 73.2793 20.1788 73.2793 18.4935C73.2793 16.7442 73.6526 15.1975 74.3993 13.8535C75.1673 12.4882 76.2019 11.4108 77.5033 10.6215C78.8259 9.83216 80.2979 9.43749 81.9193 9.43749C83.2846 9.43749 84.4793 9.66149 85.5033 10.1095C86.5486 10.5575 87.4339 11.1762 88.1593 11.9655C88.8846 12.7548 89.4393 13.6615 89.8233 14.6855C90.2073 15.6882 90.3993 16.7762 90.3993 17.9495C90.3993 18.2482 90.3779 18.5575 90.3353 18.8775C90.3139 19.1975 90.2606 19.4748 90.1753 19.7095H76.7352V16.5095H87.8073L85.8233 18.0135C86.0153 17.0322 85.9619 16.1575 85.6633 15.3895C85.3859 14.6215 84.9166 14.0135 84.2553 13.5655C83.6153 13.1175 82.8366 12.8935 81.9193 12.8935C81.0446 12.8935 80.2659 13.1175 79.5833 13.5655C78.9006 13.9922 78.3779 14.6322 78.0153 15.4855C77.6739 16.3175 77.5459 17.3308 77.6313 18.5255C77.5459 19.5922 77.6846 20.5415 78.0473 21.3735C78.4313 22.1842 78.9859 22.8135 79.7113 23.2615C80.4579 23.7095 81.3113 23.9335 82.2713 23.9335C83.2313 23.9335 84.0419 23.7308 84.7033 23.3255C85.3859 22.9202 85.9193 22.3762 86.3033 21.6935L89.6953 23.3575C89.3539 24.1895 88.8206 24.9255 88.0953 25.5655C87.3699 26.2055 86.5059 26.7068 85.5033 27.0695C84.5219 27.4322 83.4339 27.6135 82.2393 27.6135ZM93.577 27.2295V9.82149H97.513V13.2455L97.193 12.6375C97.5983 11.5922 98.2597 10.8028 99.177 10.2695C100.116 9.71482 101.204 9.43749 102.441 9.43749C103.721 9.43749 104.852 9.71482 105.833 10.2695C106.836 10.8242 107.614 11.6028 108.169 12.6055C108.724 13.5868 109.001 14.7282 109.001 16.0295V27.2295H104.809V17.0215C104.809 16.2535 104.66 15.5922 104.361 15.0375C104.062 14.4828 103.646 14.0562 103.113 13.7575C102.601 13.4375 101.993 13.2775 101.289 13.2775C100.606 13.2775 99.9983 13.4375 99.465 13.7575C98.9317 14.0562 98.5157 14.4828 98.217 15.0375C97.9183 15.5922 97.769 16.2535 97.769 17.0215V27.2295H93.577ZM120.802 27.6135C119.01 27.6135 117.442 27.2082 116.098 26.3975C114.754 25.5868 113.708 24.4882 112.962 23.1015C112.215 21.7148 111.842 20.1788 111.842 18.4935C111.842 16.7442 112.215 15.1975 112.962 13.8535C113.73 12.4882 114.764 11.4108 116.066 10.6215C117.388 9.83216 118.86 9.43749 120.482 9.43749C121.847 9.43749 123.042 9.66149 124.066 10.1095C125.111 10.5575 125.996 11.1762 126.722 11.9655C127.447 12.7548 128.002 13.6615 128.386 14.6855C128.77 15.6882 128.962 16.7762 128.962 17.9495C128.962 18.2482 128.94 18.5575 128.898 18.8775C128.876 19.1975 128.823 19.4748 128.738 19.7095H115.298V16.5095H126.37L124.386 18.0135C124.578 17.0322 124.524 16.1575 124.226 15.3895C123.948 14.6215 123.479 14.0135 122.818 13.5655C122.178 13.1175 121.399 12.8935 120.482 12.8935C119.607 12.8935 118.828 13.1175 118.146 13.5655C117.463 13.9922 116.94 14.6322 116.578 15.4855C116.236 16.3175 116.108 17.3308 116.194 18.5255C116.108 19.5922 116.247 20.5415 116.61 21.3735C116.994 22.1842 117.548 22.8135 118.274 23.2615C119.02 23.7095 119.874 23.9335 120.834 23.9335C121.794 23.9335 122.604 23.7308 123.266 23.3255C123.948 22.9202 124.482 22.3762 124.866 21.6935L128.258 23.3575C127.916 24.1895 127.383 24.9255 126.658 25.5655C125.932 26.2055 125.068 26.7068 124.066 27.0695C123.084 27.4322 121.996 27.6135 120.802 27.6135ZM132.14 27.2295V9.82149H136.076V13.6935L135.756 13.1175C136.161 11.8162 136.79 10.9095 137.644 10.3975C138.518 9.88549 139.564 9.62949 140.78 9.62949H141.804V13.3415H140.3C139.105 13.3415 138.145 13.7148 137.42 14.4615C136.694 15.1868 136.332 16.2108 136.332 17.5335V27.2295H132.14ZM149.388 27.6135C148.172 27.6135 147.116 27.4108 146.22 27.0055C145.324 26.6002 144.631 26.0242 144.14 25.2775C143.65 24.5095 143.404 23.6242 143.404 22.6215C143.404 21.6615 143.618 20.8082 144.044 20.0615C144.471 19.2935 145.132 18.6535 146.028 18.1415C146.924 17.6295 148.055 17.2668 149.42 17.0535L155.116 16.1255V19.3255L150.22 20.1575C149.388 20.3068 148.77 20.5735 148.364 20.9575C147.959 21.3415 147.756 21.8428 147.756 22.4615C147.756 23.0588 147.98 23.5388 148.428 23.9015C148.898 24.2428 149.474 24.4135 150.156 24.4135C151.031 24.4135 151.799 24.2322 152.46 23.8695C153.143 23.4855 153.666 22.9628 154.028 22.3015C154.412 21.6402 154.604 20.9148 154.604 20.1255V15.6455C154.604 14.8988 154.306 14.2802 153.708 13.7895C153.132 13.2775 152.364 13.0215 151.404 13.0215C150.508 13.0215 149.708 13.2668 149.004 13.7575C148.322 14.2268 147.82 14.8562 147.5 15.6455L144.076 13.9815C144.418 13.0642 144.951 12.2748 145.676 11.6135C146.423 10.9308 147.298 10.3975 148.3 10.0135C149.303 9.62949 150.391 9.43749 151.564 9.43749C152.994 9.43749 154.252 9.70416 155.34 10.2375C156.428 10.7495 157.271 11.4748 157.868 12.4135C158.487 13.3308 158.796 14.4082 158.796 15.6455V27.2295H154.828V24.2535L155.724 24.1895C155.276 24.9362 154.743 25.5655 154.124 26.0775C153.506 26.5682 152.802 26.9522 152.012 27.2295C151.223 27.4855 150.348 27.6135 149.388 27.6135ZM170.294 27.4215C168.332 27.4215 166.806 26.8882 165.718 25.8215C164.652 24.7335 164.118 23.2082 164.118 21.2455V13.5655H161.11V9.82149H161.43C162.284 9.82149 162.945 9.59749 163.414 9.14949C163.884 8.70149 164.118 8.05082 164.118 7.19749V5.85349H168.31V9.82149H172.31V13.5655H168.31V21.0215C168.31 21.5975 168.406 22.0882 168.598 22.4935C168.812 22.8988 169.132 23.2082 169.558 23.4215C170.006 23.6348 170.572 23.7415 171.254 23.7415C171.404 23.7415 171.574 23.7308 171.766 23.7095C171.98 23.6882 172.182 23.6668 172.374 23.6455V27.2295C172.076 27.2722 171.734 27.3148 171.35 27.3575C170.966 27.4002 170.614 27.4215 170.294 27.4215ZM175.577 27.2295V9.82149H179.769V27.2295H175.577ZM175.577 7.86949V3.38949H179.769V7.86949H175.577ZM192.152 27.6135C190.445 27.6135 188.888 27.2188 187.48 26.4295C186.093 25.6402 184.984 24.5628 184.152 23.1975C183.341 21.8322 182.936 20.2748 182.936 18.5255C182.936 16.7762 183.341 15.2188 184.152 13.8535C184.984 12.4882 186.093 11.4108 187.48 10.6215C188.866 9.83216 190.424 9.43749 192.152 9.43749C193.858 9.43749 195.405 9.83216 196.792 10.6215C198.178 11.4108 199.277 12.4882 200.088 13.8535C200.92 15.1975 201.336 16.7548 201.336 18.5255C201.336 20.2748 200.92 21.8322 200.088 23.1975C199.256 24.5628 198.146 25.6402 196.76 26.4295C195.373 27.2188 193.837 27.6135 192.152 27.6135ZM192.152 23.7735C193.09 23.7735 193.912 23.5495 194.616 23.1015C195.341 22.6535 195.906 22.0348 196.312 21.2455C196.738 20.4348 196.952 19.5282 196.952 18.5255C196.952 17.5015 196.738 16.6055 196.312 15.8375C195.906 15.0482 195.341 14.4295 194.616 13.9815C193.912 13.5122 193.09 13.2775 192.152 13.2775C191.192 13.2775 190.349 13.5122 189.624 13.9815C188.898 14.4295 188.322 15.0482 187.896 15.8375C187.49 16.6055 187.288 17.5015 187.288 18.5255C187.288 19.5282 187.49 20.4348 187.896 21.2455C188.322 22.0348 188.898 22.6535 189.624 23.1015C190.349 23.5495 191.192 23.7735 192.152 23.7735ZM204.515 27.2295V9.82149H208.451V13.2455L208.131 12.6375C208.536 11.5922 209.197 10.8028 210.115 10.2695C211.053 9.71482 212.141 9.43749 213.379 9.43749C214.659 9.43749 215.789 9.71482 216.771 10.2695C217.773 10.8242 218.552 11.6028 219.107 12.6055C219.661 13.5868 219.939 14.7282 219.939 16.0295V27.2295H215.747V17.0215C215.747 16.2535 215.597 15.5922 215.299 15.0375C215 14.4828 214.584 14.0562 214.051 13.7575C213.539 13.4375 212.931 13.2775 212.227 13.2775C211.544 13.2775 210.936 13.4375 210.403 13.7575C209.869 14.0562 209.453 14.4828 209.155 15.0375C208.856 15.5922 208.707 16.2535 208.707 17.0215V27.2295H204.515ZM230.107 27.6135C228.251 27.6135 226.63 27.1762 225.243 26.3015C223.878 25.4055 222.939 24.2002 222.427 22.6855L225.563 21.1815C226.011 22.1628 226.63 22.9308 227.419 23.4855C228.23 24.0402 229.126 24.3175 230.107 24.3175C230.875 24.3175 231.483 24.1468 231.931 23.8055C232.379 23.4642 232.603 23.0162 232.603 22.4615C232.603 22.1202 232.507 21.8428 232.315 21.6295C232.145 21.3948 231.899 21.2028 231.579 21.0535C231.281 20.8828 230.95 20.7442 230.587 20.6375L227.739 19.8375C226.267 19.4108 225.147 18.7602 224.379 17.8855C223.633 17.0108 223.259 15.9762 223.259 14.7815C223.259 13.7148 223.526 12.7868 224.059 11.9975C224.614 11.1868 225.371 10.5575 226.331 10.1095C227.313 9.66149 228.433 9.43749 229.691 9.43749C231.334 9.43749 232.785 9.83216 234.043 10.6215C235.302 11.4108 236.198 12.5202 236.731 13.9495L233.531 15.4535C233.233 14.6642 232.731 14.0348 232.027 13.5655C231.323 13.0962 230.534 12.8615 229.659 12.8615C228.955 12.8615 228.401 13.0215 227.995 13.3415C227.59 13.6615 227.387 14.0775 227.387 14.5895C227.387 14.9095 227.473 15.1868 227.643 15.4215C227.814 15.6562 228.049 15.8482 228.347 15.9975C228.667 16.1468 229.03 16.2855 229.435 16.4135L232.219 17.2455C233.649 17.6722 234.747 18.3122 235.515 19.1655C236.305 20.0188 236.699 21.0642 236.699 22.3015C236.699 23.3468 236.422 24.2748 235.867 25.0855C235.313 25.8748 234.545 26.4935 233.563 26.9415C232.582 27.3895 231.43 27.6135 230.107 27.6135Z" fill="url(#paint0_linear_4_4275)"/>
<defs>
<linearGradient id="paint0_linear_4_4275" x1="13" y1="15.9089" x2="239" y2="15.9089" gradientUnits="userSpaceOnUse">
<stop stop-color="#333399"/>
<stop offset="1" stop-color="#0078FF"/>
</linearGradient>
</defs>
</svg>
